<svg width="120" height="44" viewBox="0 0 120 44" fill="none" xmlns="http://www.w3.org/2000/svg">
<path d="M25.6065 15.6485C27.3446 15.8119 28.3586 16.8346 28.8409 18.0586C29.2983 19.2196 29.2835 20.5495 29.1163 21.5401C28.7931 23.4537 27.5404 26.874 26.3155 29.4649C25.7878 30.581 25.0478 31.3689 24.1631 31.7559C23.2664 32.1481 22.3146 32.085 21.4903 31.667C20.6601 31.246 20.1398 30.6368 19.9522 29.874C19.7775 29.1638 19.9259 28.4516 20.1212 27.8653C20.2895 27.3599 20.5295 26.8503 20.7315 26.4199C20.7648 26.3491 20.7964 26.2801 20.8272 26.2139C21.0702 25.691 21.2028 25.3577 21.2305 25.1406C21.3624 24.1073 21.3143 23.578 21.2325 22.9551C21.223 22.8827 21.2125 22.8084 21.2022 22.7324C21.1164 22.0996 21.0108 21.3188 21.0108 20.002C21.0108 18.3504 21.5869 17.1558 22.5479 16.4268C23.4744 15.7241 24.6249 15.5562 25.6065 15.6485ZM22.4141 26.9512C22.3785 27.0279 22.3436 27.104 22.3087 27.1787C22.1045 27.6146 21.9144 28.0186 21.7813 28.418C21.6246 28.8886 21.5948 29.222 21.6524 29.4561C21.6971 29.6376 21.8202 29.8726 22.2813 30.1065C22.6696 30.3034 23.0742 30.322 23.462 30.1524C23.862 29.9774 24.3351 29.5594 24.7335 28.7168C24.9607 28.2362 25.1869 27.7299 25.4063 27.2139L22.626 26.4815C22.556 26.6458 22.4824 26.8042 22.4141 26.9512ZM15.6719 12.1065C16.9834 12.2014 18.0678 12.784 18.6934 13.8301C19.3061 14.8545 19.4103 16.2076 19.0499 17.7285C18.7582 18.9592 18.4306 19.7463 18.1856 20.334C18.1397 20.444 18.096 20.5469 18.0567 20.6446C17.8325 21.2022 17.7173 21.5944 17.7911 22.3506C17.8159 22.6051 17.8964 22.94 18.004 23.3858C18.0226 23.4631 18.0424 23.5438 18.0626 23.628C18.1886 24.1549 18.3301 24.7862 18.3663 25.3975C18.4015 25.9926 18.348 26.7138 17.9415 27.336C17.4968 28.0165 16.7614 28.3888 15.8477 28.4854C15.2441 28.5491 14.3843 28.4916 13.5831 28.0606C12.7529 27.6138 12.0571 26.8026 11.7686 25.501C11.5793 24.6466 11.4913 23.8119 11.4034 22.9834C11.3648 22.6197 11.3262 22.2571 11.2794 21.8946C11.0651 20.2349 10.938 18.3115 11.0245 16.9834C11.0876 16.0138 11.3293 14.774 12.0167 13.7744C12.3695 13.2615 12.8476 12.8015 13.4805 12.4912C14.1145 12.1805 14.8484 12.047 15.6719 12.1065ZM13.1788 22.8096C13.2608 23.5873 13.3337 24.2743 13.503 25.0381C13.6951 25.9048 14.1127 26.3224 14.5118 26.5371C14.9396 26.7673 15.4248 26.8044 15.7647 26.7686C16.2761 26.7145 16.4107 26.5544 16.463 26.4746C16.5531 26.3366 16.6244 26.0695 16.5967 25.6026C16.5701 25.1518 16.4616 24.6465 16.335 24.1172C16.3182 24.0467 16.3001 23.9746 16.2823 23.9014C16.2064 23.589 16.1262 23.2565 16.0733 22.9531L13.1768 22.793C13.1774 22.7984 13.1782 22.8042 13.1788 22.8096ZM25.4424 17.3906C24.7481 17.3254 24.0794 17.4619 23.6055 17.8213C23.1662 18.1546 22.7608 18.7808 22.7608 20.002C22.7608 21.1995 22.8531 21.8838 22.9366 22.5C22.9469 22.5765 22.9579 22.6523 22.9678 22.7276C23.0551 23.3919 23.1103 24.0159 23.0049 25.0303L25.9756 25.8125C26.6615 24.0459 27.209 22.3239 27.3907 21.2481C27.5266 20.4428 27.5126 19.4632 27.212 18.7002C26.9361 18.0002 26.4333 17.4838 25.4424 17.3906ZM15.4317 13.8291C14.8805 13.7894 14.4858 13.883 14.1973 14.0244C13.9081 14.1662 13.6692 14.3839 13.4698 14.6739C13.0527 15.2806 12.8475 16.1488 12.793 16.9864C12.7214 18.0873 12.8164 19.7448 13.001 21.2803L16.0333 21.4492C16.0964 20.9549 16.2367 20.539 16.4122 20.1026C16.4577 19.9894 16.5043 19.8754 16.5528 19.7588C16.7939 19.1792 17.0677 18.5227 17.3243 17.4405C17.6183 16.2001 17.4791 15.3223 17.1475 14.7676C16.8288 14.2347 16.2674 13.8895 15.4317 13.8291Z" fill="black"/>
<path d="M58.8389 11.5887C59.1974 11.4271 59.6174 11.4904 59.9121 11.7508L70.6621 21.2508C70.8786 21.4421 71.0019 21.7177 71 22.0066C70.9981 22.2954 70.8712 22.5692 70.6523 22.7576L59.9023 32.0076C59.6061 32.2625 59.1883 32.3219 58.833 32.159C58.4777 31.996 58.25 31.6407 58.25 31.2498V26.2654C55.4091 26.407 52.2738 27.1402 50.207 29.2068C49.921 29.4928 49.4909 29.5784 49.1172 29.4236C48.7436 29.2688 48.5 28.9042 48.5 28.4998C48.5001 22.6586 52.351 17.9763 58.25 17.5281V12.4998C58.2501 12.1067 58.4805 11.7503 58.8389 11.5887ZM60.25 18.4998C60.25 18.7693 60.1411 19.0274 59.9482 19.2156C59.7553 19.4038 59.4941 19.5065 59.2246 19.4998C55.0207 19.3949 51.4135 22.1699 50.6797 26.3289C52.9153 24.9803 55.5812 24.3927 58.1699 24.2664C58.5081 24.2499 58.7823 24.2459 58.9746 24.2459C59.5637 24.2459 60.2499 24.3733 60.25 25.2498V29.0701L68.4785 21.99L60.25 14.7186V18.4998Z" fill="black"/>
<path d="M109 27C109.276 27 109.5 27.2239 109.5 27.5V28.5C109.5 28.7761 109.276 29 109 29H91C90.7239 29 90.5 28.7761 90.5 28.5V27.5C90.5 27.2239 90.7239 27 91 27H109ZM109 21C109.276 21 109.5 21.2239 109.5 21.5V22.5C109.5 22.7761 109.276 23 109 23H91C90.7239 23 90.5 22.7761 90.5 22.5V21.5C90.5 21.2239 90.7239 21 91 21H109ZM109 15C109.276 15 109.5 15.2239 109.5 15.5V16.5C109.5 16.7761 109.276 17 109 17H91C90.7239 17 90.5 16.7761 90.5 16.5V15.5C90.5 15.2239 90.7239 15 91 15H109Z" fill="black"/>
</svg>
