<svg width="40" height="44" viewBox="0 0 40 44" fill="none" xmlns="http://www.w3.org/2000/svg">
<path d="M17.4996 23.5C19.5914 23.5 21.4898 24.0707 22.9683 25.25H22.4996C21.7572 25.2501 21.0979 25.6106 20.6881 26.166C19.7885 25.731 18.7174 25.5 17.4996 25.5C15.5091 25.5 13.9118 26.1182 12.8121 27.2334C11.7898 28.2701 11.1018 29.8341 11.0103 32C10.9986 32.2758 10.7756 32.5 10.4996 32.5H9.49958C9.22357 32.4999 8.99845 32.2759 9.00837 32C9.10202 29.4081 9.92941 27.3077 11.3873 25.8291C12.9375 24.257 15.0903 23.5 17.4996 23.5ZM26.9996 23.5C27.2746 23.5 27.4996 23.725 27.4996 24V27H30.4996C30.7746 27 30.9996 27.225 30.9996 27.5V28.5C30.9996 28.775 30.7746 29 30.4996 29H27.4996V32C27.4996 32.275 27.2746 32.5 26.9996 32.5H25.9996C25.7247 32.4999 25.4996 32.2749 25.4996 32V29H22.4996C22.2247 28.9999 21.9996 28.7749 21.9996 28.5V27.5C21.9996 27.2251 22.2247 27.0001 22.4996 27H25.4996V24C25.4996 23.7251 25.7247 23.5001 25.9996 23.5H26.9996ZM17.4996 12C20.261 12 22.4996 14.2386 22.4996 17C22.4996 19.7614 20.261 22 17.4996 22C14.7383 21.9999 12.4996 19.7613 12.4996 17C12.4996 14.2387 14.7383 12.0001 17.4996 12ZM17.4996 14C15.8428 14.0001 14.4996 15.3432 14.4996 17C14.4996 18.6568 15.8429 19.9999 17.4996 20C19.1564 20 20.4996 18.6568 20.4996 17C20.4996 15.3431 19.1564 14 17.4996 14Z" fill="black"/>
</svg>
