<svg width="22" height="22" viewBox="0 0 22 22" fill="none" xmlns="http://www.w3.org/2000/svg">
<path d="M5.0419 12.375C5.29478 12.3752 5.49974 12.5801 5.49991 12.833V19.25C5.4999 19.503 5.29488 19.7078 5.0419 19.708H4.12491C3.87178 19.708 3.66691 19.5031 3.6669 19.25V12.833C3.66707 12.58 3.87188 12.375 4.12491 12.375H5.0419ZM11.4579 12.375C11.7109 12.375 11.9167 12.58 11.9169 12.833V19.25C11.9169 19.5031 11.711 19.708 11.4579 19.708H10.5419C10.2888 19.708 10.0829 19.5031 10.0829 19.25V12.833C10.0831 12.58 10.2889 12.375 10.5419 12.375H11.4579ZM17.8749 12.375C18.1279 12.375 18.3327 12.58 18.3329 12.833V19.25C18.3329 19.5031 18.128 19.708 17.8749 19.708H16.9579C16.7049 19.7078 16.4999 19.503 16.4999 19.25V12.833C16.5001 12.5801 16.705 12.3752 16.9579 12.375H17.8749ZM5.0419 2.29199C5.29488 2.29217 5.49991 2.49698 5.49991 2.75V9.16699C5.49973 9.41986 5.29477 9.62482 5.0419 9.625H4.12491C3.87189 9.625 3.66708 9.41997 3.6669 9.16699V2.75C3.6669 2.49687 3.87178 2.29199 4.12491 2.29199H5.0419ZM11.4579 2.29199C11.711 2.29199 11.9169 2.49687 11.9169 2.75V9.16699C11.9167 9.41997 11.7109 9.625 11.4579 9.625H10.5419C10.2889 9.625 10.0831 9.41997 10.0829 9.16699V2.75C10.0829 2.49687 10.2888 2.29199 10.5419 2.29199H11.4579ZM17.8749 2.29199C18.128 2.29199 18.3329 2.49687 18.3329 2.75V9.16699C18.3327 9.41997 18.1279 9.625 17.8749 9.625H16.9579C16.705 9.62483 16.5001 9.41986 16.4999 9.16699V2.75C16.4999 2.49698 16.7049 2.29217 16.9579 2.29199H17.8749Z" fill="black" fill-opacity="0.48"/>
</svg>
