<svg width="22" height="22" viewBox="0 0 22 22" fill="none" xmlns="http://www.w3.org/2000/svg">
<path d="M4.15973 2.58463C4.34141 2.35089 4.69318 2.34797 4.87848 2.57877L8.67828 7.319C8.8366 7.51651 8.8045 7.80521 8.60699 7.96353L7.89215 8.53677C7.69464 8.69504 7.40592 8.66298 7.24762 8.46549L5.44196 6.21256V12.9254C5.44196 13.967 5.44265 14.6931 5.48883 15.2585C5.53415 15.8132 5.61876 16.1323 5.74176 16.3737C6.00542 16.8911 6.42651 17.3112 6.94391 17.5749C7.18526 17.6978 7.50368 17.7825 8.05817 17.8278C8.62361 17.874 9.35026 17.8747 10.3922 17.8747H11.4586C11.7115 17.8749 11.9166 18.0807 11.9166 18.3336V19.2497C11.9166 19.5026 11.7115 19.7084 11.4586 19.7086H10.3531C9.35961 19.7087 8.55765 19.708 7.90875 19.6549C7.24081 19.6003 6.65372 19.4852 6.1109 19.2086C5.24865 18.7692 4.54733 18.068 4.10797 17.2057C3.8314 16.6628 3.71626 16.0759 3.66168 15.4079C3.60867 14.759 3.60894 13.9578 3.60895 12.9645V6.27994L1.92145 8.45084C1.76608 8.65061 1.47772 8.68624 1.27789 8.53091L0.55426 7.96841C0.354731 7.81302 0.31899 7.52557 0.474182 7.32584L4.15973 2.58463ZM11.5884 2.29166C12.5819 2.29165 13.3839 2.29138 14.0328 2.34439C14.7008 2.39899 15.2878 2.51506 15.8306 2.79166C16.6929 3.23109 17.3942 3.93231 17.8336 4.79459C18.1101 5.33741 18.2253 5.92448 18.2798 6.59244C18.3328 7.24125 18.3326 8.04254 18.3326 9.0358V15.7204L20.0806 13.5348C20.2388 13.3373 20.5276 13.3055 20.7252 13.4635L21.441 14.0368C21.6384 14.1949 21.6703 14.4828 21.5123 14.6803L17.774 19.3532C17.5905 19.5825 17.2416 19.5825 17.0582 19.3532L13.3199 14.6803C13.162 14.4827 13.1946 14.1948 13.3922 14.0368L14.108 13.4635C14.3055 13.3058 14.5934 13.3376 14.7515 13.5348L16.4996 15.7204V9.07486C16.4996 8.03333 16.4989 7.3072 16.4527 6.74185C16.4074 6.18715 16.3228 5.86802 16.1998 5.62662C15.9361 5.10917 15.5151 4.68812 14.9976 4.42447C14.7563 4.3016 14.4377 4.21684 13.8834 4.17154C13.3179 4.12534 12.5913 4.12466 11.5494 4.12466H10.5416C10.2884 4.12466 10.0836 3.91979 10.0836 3.66666V2.74966C10.0837 2.49668 10.2885 2.29166 10.5416 2.29166H11.5884Z" fill="black" fill-opacity="0.48"/>
</svg>
