<svg width="22" height="22" viewBox="0 0 22 22" fill="none" xmlns="http://www.w3.org/2000/svg">
<path d="M10.9999 0.916992C13.7842 0.916993 16.0417 3.17372 16.0419 5.95801V8.70801H16.4999C18.0186 8.70801 19.2497 9.93937 19.2499 11.458V17.875C19.2499 19.3938 18.0187 20.625 16.4999 20.625H5.49991C3.98113 20.625 2.74991 19.3938 2.74991 17.875V11.458C2.75008 9.93937 3.98123 8.70801 5.49991 8.70801H5.95792V5.95801C5.95809 3.17372 8.21558 0.916992 10.9999 0.916992ZM5.49991 10.542C4.99375 10.542 4.58309 10.9519 4.58292 11.458V17.875C4.58292 18.3813 4.99365 18.792 5.49991 18.792H16.4999C17.0062 18.792 17.4169 18.3813 17.4169 17.875V11.458C17.4167 10.9519 17.0061 10.542 16.4999 10.542H5.49991ZM10.9999 2.75C9.2281 2.75 7.79207 4.18624 7.7919 5.95801V8.70801H14.2079V5.95801C14.2077 4.18624 12.7717 2.75 10.9999 2.75Z" fill="black" fill-opacity="0.48"/>
</svg>
