<svg width="22" height="22" viewBox="0 0 22 22" fill="none" xmlns="http://www.w3.org/2000/svg">
<g clip-path="url(#clip0_6096_202497)">
<path d="M16.0416 1.83365C17.3071 1.83365 18.3334 2.85916 18.3336 4.12466V7.89029C17.748 7.71896 17.1347 7.61018 16.4996 7.57486V4.12466C16.4994 3.87168 16.2946 3.66666 16.0416 3.66666H5.95857C5.70555 3.66666 5.49976 3.87168 5.49959 4.12466V17.2311L9.00838 14.3805C9.37422 14.8721 9.78434 15.3313 10.233 15.7477L5.1617 19.8688C4.56275 20.3554 3.66692 19.9295 3.66658 19.1579V4.12466C3.66676 2.85916 4.69303 1.83365 5.95857 1.83365H16.0416ZM18.3336 19.1579C18.3332 19.9295 17.4374 20.3554 16.8385 19.8688L14.483 17.9547C14.9861 18.0525 15.5065 18.1042 16.0416 18.1042C16.8411 18.1042 17.6082 17.9892 18.3336 17.777V19.1579ZM12.2408 8.15494C12.4198 7.97608 12.7103 7.97599 12.8892 8.15494L14.0152 9.28091C14.6557 9.05825 15.3344 8.93716 16.0416 8.93716C18.4215 8.93716 20.4785 10.3055 21.8424 12.319C22.0526 12.6294 22.0526 13.0369 21.8424 13.3473C21.3311 14.1021 20.7222 14.7661 20.0357 15.3014L20.9488 16.2155C21.1277 16.3944 21.1277 16.684 20.9488 16.8629L20.3004 17.5114C20.1214 17.6902 19.8319 17.6903 19.6529 17.5114L11.5924 9.45181C11.4134 9.27286 11.4135 8.98238 11.5924 8.80338L12.2408 8.15494ZM12.7428 12.1803C12.5327 12.3787 12.3308 12.5972 12.1392 12.8336C13.0539 13.9626 14.1953 14.6673 15.4107 14.8493L17.1842 16.6217C16.8131 16.6921 16.4317 16.7292 16.0416 16.7292C13.6616 16.7292 11.6047 15.3608 10.2408 13.3473C10.0306 13.0369 10.0305 12.6294 10.2408 12.319C10.5975 11.7924 11.002 11.3098 11.4469 10.8844L12.7428 12.1803ZM16.0416 10.7711C15.8716 10.7711 15.7025 10.7813 15.5347 10.8014L18.7262 13.9928C19.1624 13.6808 19.5723 13.2924 19.9439 12.8336C18.8725 11.5111 17.49 10.7711 16.0416 10.7711Z" fill="black"/>
</g>
<defs>
<clipPath id="clip0_6096_202497">
<rect width="22" height="22" fill="white"/>
</clipPath>
</defs>
</svg>
