<svg width="22" height="22" viewBox="0 0 22 22" fill="none" xmlns="http://www.w3.org/2000/svg">
<path d="M10.9996 4.32669C12.4696 2.48256 14.4879 1.77726 16.5006 2.18509C17.5594 2.39966 19.0621 3.23283 20.0543 4.69583C21.0865 6.218 21.5257 8.35934 20.4996 11.0445C19.6988 13.1397 17.981 15.0914 16.2476 16.6372C14.5008 18.1951 12.6398 19.4264 11.4244 20.062L10.9996 20.2847L10.5748 20.062C9.35935 19.4264 7.49822 18.195 5.75154 16.6372C4.0183 15.0914 2.30133 13.1395 1.50056 11.0445C0.474355 8.35929 0.913635 6.21802 1.94587 4.69583C2.93803 3.23293 4.44081 2.39965 5.49958 2.18509C7.51212 1.7774 9.52966 2.48276 10.9996 4.32669ZM16.1363 3.98197C13.6286 3.47389 12.2247 5.08425 10.9996 6.81595C9.77432 5.08407 8.35383 3.47718 5.86287 3.98197C5.26666 4.10295 4.18208 4.66551 3.46345 5.72513C2.78479 6.72592 2.38948 8.23438 3.21345 10.3902C3.85872 12.0784 5.31819 13.794 6.97224 15.2691C8.41108 16.5523 9.92424 17.5899 10.9996 18.2046C12.0749 17.5899 13.5889 16.5524 15.0279 15.2691C16.6819 13.794 18.1415 12.0783 18.7867 10.3902C19.6106 8.23444 19.2153 6.7259 18.5367 5.72513C17.8179 4.66516 16.7325 4.10278 16.1363 3.98197Z" fill="black" fill-opacity="0.48"/>
</svg>
